<svg id="Layer_1" data-name="Layer 1" xmlns="http://www.w3.org/2000/svg" viewBox="0 0 700.6 274"><title>theandreina_logo</title><path d="M580.3,185.8h1.2l.6,1.9a4.9,4.9,0,0,0-1.3,1.2,5.3,5.3,0,0,0-.4,1.9c.8.4,2.1-.5,2.7.7l-2.3,2.2c-.2,1.8-.4,3.3-.6,4.8s-.3,1.1-.6,1.2c-1.8.6-2.3,2.3-3.4,3.6s0,.4-.1.4c-2.7,2.1-2.7,2.2-3.9,5.1a3.6,3.6,0,0,1-1.5,1.5c-.7.4-1.2,1.3-2.3,1.2s-.6,1.1-1.1,1.3a10.2,10.2,0,0,1-4.1,1.5c-.2.1-.6-.1-.7.1s-3.4.8-5.1.9a6.4,6.4,0,0,1-3.7-1.3,41.9,41.9,0,0,1-5.9-3.2,19.5,19.5,0,0,1-3.1-3.3,19.2,19.2,0,0,0-1.3-1.7,14.1,14.1,0,0,1-3.2-5.4,32.8,32.8,0,0,1-1.7-5l-.3-.4c.4-2.2-.8-4.2-.5-6.3a88.5,88.5,0,0,1,1.2-8.8c.7-2.7,1.5-5.4,2.3-8a2.2,2.2,0,0,1,.5-.8,4.8,4.8,0,0,0,1.5-3.9,3.2,3.2,0,0,1,.5-2.3c1.2-1.3,1.4-3.1,2-4.7s2.1-4.4,3.1-6.7c.3-.7,1.5-.4,1.5-1.6s.6-1.5.9-2.4a14.1,14.1,0,0,0,.6-2.2c0-.8.6-1.4.8-2.2s-.4-.5-.8-.9l-1.1.9c-1,1-1.7,2.3-2.9,2.8s-3.3,3.1-5,4.6-3.3,3.3-4.9,5-.5.8-.8,1.2a7.5,7.5,0,0,1-.7,1.2l-3.5,4a47.2,47.2,0,0,0-5.2,6.6,17.6,17.6,0,0,1-2.4,3,26.5,26.5,0,0,0-3.3,4.2c-.5.8-1.7,1.2-2.7,1.9s.8.7.2,1.3a14.4,14.4,0,0,0-3.4,4.3c-.4.6-1.3.9-1.9,1.4s-1.3,1.3-2,2a5.5,5.5,0,0,1-1.7,4.3,3.7,3.7,0,0,0-1.4,1.6c-.1.5-.9.8-1.4,1.1s-2.1,1-2,2.4a1.6,1.6,0,0,1-.5,1.1c-1.7,1.6-2.3,3.9-3.6,5.7a4.3,4.3,0,0,0-.8,2.7,8.1,8.1,0,0,1-.7,2.2c-.1.4-.4.7-.4,1.1a4.2,4.2,0,0,1-2.4,4.2c-.3.2-.4.5-.7.7a5,5,0,0,1-2.1,1,3.6,3.6,0,0,1-2-.9,3.3,3.3,0,0,0-2.3-.9c-1.4.1-2-.7-2.6-1.8a3.7,3.7,0,0,0-2.2-2.4,2.5,2.5,0,0,1-1.2-2.4v-3.8c-.6-.2-.7.5-1.1.7l-1.2.7-1.1,1.1c-3.6,2.7-7.1,5.7-11.4,7.4a8.3,8.3,0,0,1-3.8,1h-5.5a6.5,6.5,0,0,1-3.1-.4c-.3-.2-1-.9-1.6-.1s-1-.3-1.5-.4a10.2,10.2,0,0,1-4.6-2.7,67.8,67.8,0,0,1-6.6-7.6,9.1,9.1,0,0,1-1.9-5.9c.1-3.3-1-6.5-.5-10.3-1.6,2-3.2,3.1-4.3,4.9a25.9,25.9,0,0,1-3.7,3.7c-1.3,1.1-2.2,2.6-3.8,3.4s-.9,1.3-1.5,1.9l-3.3,3.3c-1.4,1.5-2.6,3.2-4.7,3.8a.5.5,0,0,0-.4.3c-1.4,1.8-3.4,2.9-5.2,4.1s-3.2,2.4-5.2,2.6a3.4,3.4,0,0,0-1.5.7,11.7,11.7,0,0,1-4.4,1.3c-3.3.7-6.6.3-9.9.4-.7,0-1.4.5-2.3.1s-1.8.1-2.7-.1a13.1,13.1,0,0,1-5.9-2.1c-2-1.4-4.3-2.6-5.8-4.6a14.7,14.7,0,0,1-2.5-5,16.3,16.3,0,0,1-.5-4.3c-.1-1.7.4-3.4-.5-5.1a3.3,3.3,0,0,1,0-1,8.6,8.6,0,0,0,.5-2.3c0-.7-.4-1.5-.4-2.2a15.7,15.7,0,0,1,.4-2.3c.2-.9.3-1.7.5-2.6a18.9,18.9,0,0,1,.5-2.3c1.5-2.9,2.4-6,3.6-9a67.6,67.6,0,0,1,5.6-9.7c1.6-2.5,3.5-5,4.9-7.7s2-2.4,2.8-3.8l.5-.6a13,13,0,0,0,4.6-5.5c.2-.4.7-.7,1-1.1l3.9-3.9c1.8-2,3.7-3.9,5.4-6s2-.7,2.8-1.4,3.1-.7,4.7-1.1a27.4,27.4,0,0,1,3.9-.9h1.2c.5-.2,1.2-.7,1.6-.6s2.4.3,3.6,1a12.3,12.3,0,0,0,4.7,1.9c1.3.1,2.4,1.4,3.1,2.6a40.9,40.9,0,0,1,3,5.9,2.9,2.9,0,0,1,.1,1.3,2.8,2.8,0,0,0,.1.9c1.7,3.6,1.9,3.8.7,7.6a13.2,13.2,0,0,0-.7,3.2,3.1,3.1,0,0,1-1.1,2.1,23.2,23.2,0,0,0-3.9,5.4l-.5,1c-.4.8-1.5.8-1.8,1.7s-1.2,1-1.9,1.5a10.6,10.6,0,0,0-2,1.7c-.8.8-1.9,1.2-2.5,2.3a8.3,8.3,0,0,1-2.1,1.6c-1.5,1-2.9,2.4-4.8,2.8a6.3,6.3,0,0,0-2.3,1.2,13,13,0,0,1-4.1,2,19.6,19.6,0,0,1-6.4,1.1c-3-.1-5.9.9-8.8.3a11.6,11.6,0,0,1-.9,1.4,4,4,0,0,0-1,2.3,3.9,3.9,0,0,1-.6,1.8,11.8,11.8,0,0,0-2.4,6.5c-.1.8-.5,1.5-.6,2.3s-.7,1,.1,1.6-.1.5-.2.7a3.7,3.7,0,0,0,.2,3.4,31.8,31.8,0,0,1,1,3.3,4.2,4.2,0,0,0,4.5,1.8,22.3,22.3,0,0,1,2.3-.4,7.8,7.8,0,0,0,2.3-.5c1.8-.5,3.4-1.5,5.2-2.1a28.7,28.7,0,0,0,4.8-2.8,2.3,2.3,0,0,1,1.7-.7,5.4,5.4,0,0,0,4.3-1.7,13.9,13.9,0,0,1,1.9-1.5,13.2,13.2,0,0,0,2.2-1.8,5.1,5.1,0,0,1,3.2-1.9,6.9,6.9,0,0,0,3.9-2.2c3.3-2.8,6.4-5.9,9.5-8.9s4.8-5,7.3-7.2a22.5,22.5,0,0,0,5.4-7.6c1.7-3.5,3.3-7,5-10.4,1-1.8,2.2-3.4,3.3-5.1s.5-2.3,1.2-3.3.2-.8.5-1a16.6,16.6,0,0,1,2.1-1.6,13.3,13.3,0,0,1,1.9-1.4,2.1,2.1,0,0,1,1.3-.3c2,.8,4.1,1,6,1.9s2,.7,2.4,2,.6.5.8.9,1.1,1.8.2,4.2a68.8,68.8,0,0,1-3.2,7.4,9.7,9.7,0,0,1-1.5,2.4c-2,2.8-2.9,6.1-4.5,9.1a46.6,46.6,0,0,0-1.6,4.9c-.9,2.3-1.8,4.6-2.5,7s-.7,2.3-.9,3.6a16.6,16.6,0,0,1-1.1,3.8,5.8,5.8,0,0,0-.4,1.8,41.6,41.6,0,0,0,.7,8.6l1.9,1.9a7.8,7.8,0,0,0,2.4-.9c.8-.4,1.3.5,2.1-.1,2.4-1.7,4.9-3.1,7.2-5s3-2.8,5-3.6c.4-.2.6-1.1,1.1-1.5s2-2.2,3.1-3.2a56.2,56.2,0,0,0,8-10.2c1.6-2.5,3.3-5,4.7-7.6a19.6,19.6,0,0,0,1.2-3.4c.6-1.7,1.8-3.2,1.6-5.1,1.3-1.2,1.1-3.1,2-4.5a24.4,24.4,0,0,0,2.1-4.3c1-2.3,2.3-4.4,3.4-6.6s1-3.6,2-5.2,0-.6.1-.7,1.4-2.1,1.8-3.3a8.8,8.8,0,0,1,1.9-3.4l1.7-2.1-1-1.2c.1-.3.1-.5.2-.5,2-1.7,3.9-3.4,6.7-3.7a2.9,2.9,0,0,0,1.3-.5,4.5,4.5,0,0,1,5.5,1,1.1,1.1,0,0,1,.3.8,2.9,2.9,0,0,0,.8,2.2c1.2,1.3.8,2.6.2,4s-1.5,2.2-1.5,3.6-.3.6-.6.8-1.9,2.5-2.3,4a19.5,19.5,0,0,1-2.2,4.6c-.6.9-.8,2.1-1.8,2.7a2.7,2.7,0,0,1-.1,3.3,61.9,61.9,0,0,0-4.5,8.9,74.3,74.3,0,0,1-3.5,7.6c-1.1,2.1-1.6,4.5-2.5,6.7-.2.5-.3,1.1-.6,2a4.8,4.8,0,0,0,2.6-2.2,41.9,41.9,0,0,1,2.6-3.3c.5-.7,1.7-1.1,1.4-2.4l2.5-2.2.5-.2v-.3c-.3-1.6,1.5-2.7.9-4.5a3,3,0,0,0,3-1.7c.3-.4.8-.7,1.1-1.1s2.2-1.7,3-2.9a30.7,30.7,0,0,1,2.4-3.5c.3-.3.3-.8.6-1l6-6.6a18.5,18.5,0,0,0,2.9-3.3,5.6,5.6,0,0,1,2.7-2.3c.7-.3,1.2-.5,1.5-1.3a3.3,3.3,0,0,1,1.7-1.8c.7-.2,1-.7,1.5-1.1a27,27,0,0,1,5.4-4c1-.5,1.7-1.6,2.8-2.3a7.2,7.2,0,0,1,3.5-1.1l2-.5c2-.7,2-.6,4.9-.1h1a3.9,3.9,0,0,1,3.2,1.3c.3.4.5.9,1.2.7a1.9,1.9,0,0,1,2.1,1.3c.3,1,1.2,1.2,1.5,1.9s.1,3,.5,4.5a9,9,0,0,1-.9,5.8c-.6,1.5-1,3-1.6,4.4s-2,4-2.5,6.2-1.7,3.5-2.5,5.2a6.2,6.2,0,0,0-.9,2.6.7.7,0,0,1-.1.5c-2.3,2.9-2.5,6.6-3.9,9.9-.5,1.3-.9,2.7-1.5,4.1a8.3,8.3,0,0,0-1,3.8c0,1.4-.6,2.7-.5,4.1a10.6,10.6,0,0,1-.5,2.3c-.2.9-.7,2-.3,2.7s.1,1.9.3,2.9-.1.4,0,.4c1.5,1.8,1.8,4.2,3.3,6a1.7,1.7,0,0,0,2,.4,16.6,16.6,0,0,0,4.7-2.6c.6-.6,1.4-1.1,2-1.6s2.7-1.6,3.2-3.2,2.9-3.5,5.1-4.6a3.1,3.1,0,0,0,.7-.9l1.5-1.5c.6-.7,1.6-1.1,1.9-1.8s.7-1.3,1.5-1.2S580.2,184.9,580.3,185.8ZM422.6,152.3a12,12,0,0,0,.6-2.4,8.9,8.9,0,0,0-1-5.3c-.5-1.3-.8-1.6-2.1-.9s-3.1,1.5-3.9,3.3a3.9,3.9,0,0,1-1,.8c-.4.3-.9.5-.9.8s-1.6,1.8-2.4,2.8l-2.3,2.8a8.3,8.3,0,0,0-1.6,2.1,28.3,28.3,0,0,1-2.3,2.8,9.1,9.1,0,0,0-1.9,2.9,6.3,6.3,0,0,1-1.6,2.6,18,18,0,0,0-3.1,4.5c1.2.7,1.9-.2,2.7-.6s2.3-1.7,3.8-1.7a2.8,2.8,0,0,0,1.5-.6,11.5,11.5,0,0,1,2.9-2,14,14,0,0,0,2.6-1.6c1.9-1.4,3.8-3,5.6-4.5a8,8,0,0,0,1.5-1.7A48.5,48.5,0,0,0,422.6,152.3Z"/><path d="M129.2,225.3c.8.1,1.3.7,2,.1s1.8-.6,2.8-.5l3.2,3.7c-.2,1.4,1.1,1.4,2.1,2-1.1.6-.9,2-2.4,2.3s.2,1.4-.7,1.7l.6,1a2.1,2.1,0,0,0,.4.6,1,1,0,0,0-.4,1.4c.9.7-.3.9-.1,1.5s-1.2,2.1-1.5,3.3-1,.7-1.5.9a5.3,5.3,0,0,0-2.3,1.9,5,5,0,0,1-2.3,2c-1,.5-2,0-3-.3s-1.7-.3-2.5-.6a5.2,5.2,0,0,1-1.3-.6c-1.1-.6-2-1.4-3.4-1.4s-1.6-.3-1.7-1.7v-1.2h-2.1l.6-1.6-1.3.5c.2-.5-1.2-.9-.2-1.6a.5.5,0,0,0,0-.5c-1.2-1.4-1.2-3.2-1.7-4.8a12.2,12.2,0,0,1,0-6c.3-1.7,1.2-3.5.7-5.2s.5-4.4,0-6.6c0-.3.4-.6.4-.8s.9-2.3.6-3.6.4-2.5.7-3.7,1.5-3.5,1.7-5.3,1.5-4.3.1-6.5c-.1-.2.2-.6.4-.8a4,4,0,0,0,1.1-3.1,5.3,5.3,0,0,1,.4-1.6c.3-1.1,1-2.2.6-3.5s.5-1.8.5-2.8-.4-2,.5-2.8.7-3.7,1-5.5.8-1.7,1-2.6a34.8,34.8,0,0,0,1-4.4,7.1,7.1,0,0,1,.9-2.8,21.3,21.3,0,0,0,1.1-3.3c.4-2,.9-4,1.4-5.9s.1-2.4.6-3.6-.1-.5,0-.7,1.9-2.8,1.5-4.6.8-3.2,1.9-4.5.1-.7.2-1.7a3.4,3.4,0,0,1-2.4,1.6c-2.4.7-4.7,1.7-7,2.5s-2.3-.2-3.2.8-2.7.8-3.9,1.3a37.2,37.2,0,0,1-6.4,2.2c-2.7.8-5.4,1.3-8.1,2.1a50.8,50.8,0,0,0-5.1,1.7l-.3.2c-3.8,0-6.9,2-10.3,2.9-1.7.5-3.3,1.4-5.1,1.2a.9.9,0,0,0-.7.1c-1,1.1-2.5.8-3.7,1.3a13.8,13.8,0,0,1-4,1,65.2,65.2,0,0,0-6.3,1.8l-.9.2c-2,0-3.1,1.1-4.2,2.7a45.3,45.3,0,0,0-3.4,6.1c-1.9,3.4-3.3,7.1-5.2,10.6-1,1.7-1.2,3.6-2.2,5.3a17.5,17.5,0,0,0-2.2,5.3,18,18,0,0,1-2,4.7c-1.7,2.9-2.6,6.1-4,9.1.2,1.4-.7,2.4-1.2,3.5s-.8,3.4-1.2,5-.6,3.1-1.1,4.5a7.4,7.4,0,0,0-.5,2.9,8.3,8.3,0,0,1-1,3.5,2.2,2.2,0,0,1-1.9,1.4c-.5,0-.9.6-1.4.9s-.6-.7-1.7-1.3-1.8.8-2.7.3-.3-1.6.7-2.7a2.2,2.2,0,0,1-1-2,3.5,3.5,0,0,0-1.3-2.8l-1,1.6a8.2,8.2,0,0,1-4.1-1.7c-.3-1.2.2-2.5-.4-3.7a5.7,5.7,0,0,0,1.9-4.7,8.7,8.7,0,0,1,1.1-4.8,3.2,3.2,0,0,0,.3-1.6,11.3,11.3,0,0,1,2.2-7.1c1.2-1.7,1.7-3.8,2.4-5.8s2.7-6.4,3.7-9.7,1.7-3.5,2.6-5.2a9.7,9.7,0,0,0,1.2-3.5c.3-1.5,1.4-2.9,2.2-4.3s.7-.8.8-1.4a2.7,2.7,0,0,1,.8-1.7,4.9,4.9,0,0,0,1.7-3.8c-.1-1.5.1-1.6-1-1.5a2.5,2.5,0,0,1-2.7-1.9,8.3,8.3,0,0,0-.9-1.6l.9-1.9c-.2-.3-.5-1-.9-1.1a1.5,1.5,0,0,1-1.6-1.4l2.8-.2a7.5,7.5,0,0,0-.9-.9l-1-.3c1.8-.8,3.1.5,4.5.3s.4.3.9.1a36.9,36.9,0,0,1,6.4-2.1,3.8,3.8,0,0,0,2.9-2.1c.1-.2.4-.4.4-.6.9-3.6,3.6-6.2,5.4-9.3.4-.7.6-2.1,2-2.1s.2-.3.2-.4c-.6-1.7,1.3-2.1,1.7-3.3s1.2-1.4,1.8-2,.8-1.5,1-2.3,1.5-1.1,1.5-2.2.8-.8,1.1-1.5,2.4-4,3.8-5.9a3.3,3.3,0,0,1,1.9-.8c.5-.1.6-.2.8-.7s.2-1.9.8-2.3.9-1.6,1.5-2.2,1-1.4,1.6-2.1a18,18,0,0,1,2-1.9,16.5,16.5,0,0,0,3.5-4.8,6.9,6.9,0,0,1,1.1-1.3,85.7,85.7,0,0,0,6-7.5A2.7,2.7,0,0,1,90.3,93c1.3-.1,2-1,2.9-1.8V88.6l1.3-.7.3.8L97.3,86c.9-.7,1.4-1.9,3.1-2.3-.9,2.4-2.5,3.7-3.9,5.2s-2.9,3.1-4.4,4.9c.5,0,1,.2,1.2,0s1.3-.9,1.3-1.3.8-1.6,1.5-2.2a8.3,8.3,0,0,1,2.4-2.1c.7-.3,1.1-1.4,1.8-2.1l2.2-2.4a5.2,5.2,0,0,0,1.4-1.9,8.1,8.1,0,0,1,2.6-2.9,26.2,26.2,0,0,0,4.4-4.4c1.6-1.6,2.6-3.8,4.8-5s2-2.1,3-3.2l1.8-1.5,5-4.9c1-1,2.2-1.9,3.3-2.9s1.3-.9,1.5-1.9.5-.7.8-.7,1.7-1.2,2.6-1.8a1.3,1.3,0,0,0,.5-1.2c.2-1.7.7-1.9,2.6-1a15.2,15.2,0,0,0,2.2-2.2c.6-.7,1.5-.9,2-1.8s1.4-.7,2-1.1l3.9-2.8a37.8,37.8,0,0,1,3.3-2.2c.5-.2,1.1-.1,1.5-.3s.9-.9,1.4-1.3l2.7-1.3,1.9-.8c1.1-.5,2.1-1.3,3.3-.3a1.4,1.4,0,0,0,1.4,0c.8-.7,1.6-.3,2.4-.5l2-.4h1.9l1,2.1c.4,1,.4,2.2,1.3,3a1.4,1.4,0,0,1,.2.7,1.9,1.9,0,0,0,.9,1.9,4.9,4.9,0,0,1,1.6,4v3a8,8,0,0,1-.4,3.1c-.4.9.4,2.1-.6,3s0,.8,0,1.3c.4,2.6-.6,5-1.2,7.4-.1.3-.3.5-.3.7.5,2.9-1.3,5.5-1.5,8.4l-.2.4c-.4,1-1.3,1.9-1.3,3.2s-.1,2.1-.9,3.1-.2,2.2-.5,3.3-1.4,3.9-1.6,6.1c-.8.6-.3,1.5-.6,2.2s-.8,2.5-1.4,3.7a26.2,26.2,0,0,0-1.5,3.9c-.3,1.3-.9,2.5-1.3,3.7a34.5,34.5,0,0,0-1.7,6.5,32.7,32.7,0,0,1-1.7,5.3l-3,8a7.5,7.5,0,0,0-.4,3,10.7,10.7,0,0,1-.9,4.3c-1.1,2.4-2.1,4.8-3,7.3l-1.6,4.3c-.5,1.4-1,2.8-1.4,4.2-1,3.5-2.3,7.1-3.3,10.6s-2.2,6.7-2.7,10.1c-.3,1.6-.8,3.1-1.2,4.6a32.5,32.5,0,0,1-1.2,5.2,27,27,0,0,0-1.6,4.8c-.3,1.5,0,3.2-.6,4.5s.1,3-.9,4.2-1.1,2.4-1.1,3.8a9.3,9.3,0,0,1-.4,1.3c-.3,1.8-.3,3.8-1.3,5.4a1.9,1.9,0,0,0-.2.7c.1,2.5-.6,4.9-.9,7.4s-.9,5-1.2,7.5a24,24,0,0,1-.5,4.6A27.2,27.2,0,0,0,129.2,225.3ZM158.6,49.7l-1.5.5c-.4.3-.8.9-1.2,1.1a62.7,62.7,0,0,0-8.3,6c-2.6,2.1-5.1,4.5-7.7,6.7s-5.8,5.3-8.7,8.1a54.9,54.9,0,0,0-5.7,6.1,22,22,0,0,1-2.6,2.7,22,22,0,0,0-2.6,2.7c-.7.9-1.7,1.5-2.5,2.4s-1.1.8-1.4,1.4c-1.6,3.1-4.3,5.2-6.4,7.8s-4.9,5.3-7.4,8c-.3.3-.7.5-.8.9-1.7,3.5-4.7,5.9-7,8.8a28.8,28.8,0,0,0-2.6,3.5,11.9,11.9,0,0,1-1.6,2.3c-2.6,2.4-4.6,5.4-6.7,8.2s-4.9,6.5-7.2,9.8-3.1,4.5-4.7,7a2.2,2.2,0,0,0,1.1.1l4.2-1.3a48.3,48.3,0,0,1,5-1.6c2.4-.5,4.7-1.3,7-1.9l6.8-1.7c2.1-.5,4.1-1.3,6.2-1.8s2.9-.8,4.3-1.2,1.3-.6,2.1-.5,1.6.1,2.1-.3a3.8,3.8,0,0,1,3.3-1.1c1.1.1,2.1-.6,3.1-.5s2-.5,3-.6.9-.4,1.3-.4a34.7,34.7,0,0,0,7.1-1.6c1.5-.6,3.2-.1,4.4-1.4s.7-.1,1,0,1.5-.6,2-1.1l1.3-1.8c.1-.2.4-.5.4-.8.4-3,1.6-5.9,2-8.9a4.5,4.5,0,0,1,1-2.1,1.7,1.7,0,0,0,.5-1.5,2.3,2.3,0,0,1,.2-1.2c1.4-2.4,1.4-5.4,3.1-7.7,0-1.1,1.5-2.1.2-3.3a1.7,1.7,0,0,1,0-1c.8-1.3.8-3,1.5-4.4s1.7-3.9,2.5-5.9l-1.4-1c-.5-2.6.9-4.4,2.2-6.6l.4,1.9,2.2-2.4a3.5,3.5,0,0,1-1.1-.8c-.2-.3-.4-1-.3-1.1,1.6-1.3,1.3-3.7,3.1-4.6l-.7-1.4c.6-.4,1.4-.6,1.4-1,.2-1.9,1.5-3.2,2.4-4.8l.3-.6c.4-.8.5-1.9,1.1-2.5s.3-2,.6-3,1.4-4,.4-6.3S158.9,51.4,158.6,49.7Z"/><path d="M347.2,44.8c1.3,1,1.3,1,3.1,1.1s4.3,1.1,6.3,2.2a2.5,2.5,0,0,1,.9,1.3,21.9,21.9,0,0,1,1.2,3.3c.3,1.1-.5,2.1-.7,3.2s-1.7,3.6-2.5,5.4a20.7,20.7,0,0,0-1.5,3.4,9.8,9.8,0,0,1-1.3,3.2,11.2,11.2,0,0,0-1.6,2.8c-1.2,3.1-3.2,5.9-3.9,9.2,0,.2-.3.4-.4.6-1.5,3.9-3.8,7.4-4.6,11.6a4.7,4.7,0,0,1-.5,1,18.5,18.5,0,0,0-2.6,5.5c-.5,1.8-1.2,3.6-1.9,5.4a12,12,0,0,1-1.8,4,4.8,4.8,0,0,0-1.2,3.3c-1.1,1.2-1.2,2.8-1.9,4.2a43.7,43.7,0,0,0-2.7,6.8c-.9,2.9-2.1,5.5-2.9,8.4a21.5,21.5,0,0,1-1.3,3.2,16.1,16.1,0,0,0-1.8,5.2,5.4,5.4,0,0,1-.9,2.4,49.7,49.7,0,0,0-3.9,9.9c-.5,1.3-1.5,2.4-1.6,3.8a11.6,11.6,0,0,1-1.3,3.7l-3.2,9c-.5,1.6-1,3.2-1.6,4.8-1.5,4.4-3.4,8.6-4.6,13.1-.7,2.7-1.9,5.2-2.3,8-.1.7-.8,1.2-1,1.9-.5,3-1.7,5.8-2,8.9a60.3,60.3,0,0,1-2.1,8.1c-.4,1-.6,1.8.3,2.6s.4.5.1,1a14.3,14.3,0,0,0-.9,3.7,17.5,17.5,0,0,0-.4,4c0,1.5-.2,2.9.5,4.3a15,15,0,0,0,1.9,3.8,9.6,9.6,0,0,1,1.2,3.2l-3.2,2.4a3.1,3.1,0,0,1-2.5,1.1c-.9,0-1.7,1.3-2.6.1h-4c-1.1.1-1.9.1-2.5-1.3s-1.8-1.9-2.7-2.8a8.8,8.8,0,0,1-2.2-4.9c-.3-2.3-.3-4.5-.4-6.8s-.5-2.2.3-3.2a.3.3,0,0,0,0-.4c-.7-.9,0-1.7.2-2.6s1-1.6,0-2.4.6-2.1.8-3.1.2-.7,0-.9a2,2,0,0,1,.2-2.4c.4-.5.6-1.2,1-1.8s.5-.7.5-1.1.7-3.7.9-5.6,1.1-3.7,1.4-5.7,1.9-5.9,2.8-8.8.9-3.8,1.9-5.5c.1-.2-.4-.8-.7-1.4-1.5,2.1-3.1,3.8-4.5,5.6s-3,3.1-4.5,4.7a35.9,35.9,0,0,0-3.2,3.6c-1.1,1.3-2.6,2.1-3.2,3.7s-2.9,3-4.9,3.9a11,11,0,0,0-1.4.9c-1.3.7-2.5,1.5-4.2,1.4s-5.7-.4-8.5-.5a3.7,3.7,0,0,1-2.3-1.2c-1.5-1.5-3-3.1-4.6-4.6a4.9,4.9,0,0,1-1.5-3.4c-.1-2.2-.1-4.5,0-6.7a9.9,9.9,0,0,1,.7-3.5,4,4,0,0,0,.3-2.1c0-3.1,1.1-5.9,2-8.7a14.4,14.4,0,0,1,2-3.9,11.9,11.9,0,0,0,1.1-2.6,16.2,16.2,0,0,1,1.7-3.5,19.6,19.6,0,0,0,2.8-5.6c.3-1.3,1.4-2.4,2.1-3.6l4.8-8c1.3-2,2.3-4.2,4-5.9a4.9,4.9,0,0,0,1.5-2.6,3.3,3.3,0,0,1,.6-1l4.1-4.1a4.5,4.5,0,0,1,1.2-.6c1-.4,2.3-.5,2.2-2.1s.6-.7,1-.8,3-.5,4.2-1.5.6-.1.9-.1a8.8,8.8,0,0,0,4.5-.8,3.9,3.9,0,0,1,2.8-.1c1.7.8,3.5.8,5.1,1.7s3.2,1.3,4.3,3a3,3,0,0,0,.8-.7c.8-1.9,2.1-3.5,2.9-5.3a28.2,28.2,0,0,1,3.1-5.3,8.4,8.4,0,0,0,1.4-3.2c.3-1,1.7-1.6,1.9-2.9a6.9,6.9,0,0,1,.5-1.3,32.2,32.2,0,0,1,2.1-4.6,4.1,4.1,0,0,1,2.1-1.8,1.7,1.7,0,0,0,1.1-1.3c.6-2.3,2-4.2,3-6.3s.8-3,2.2-3.8,1.3-3,1.9-4.5a5.1,5.1,0,0,1,.9-1.8,3.9,3.9,0,0,0,.2-2.3,2,2,0,0,1,.3-1.1c1.4-3.7,3.5-7.1,5.2-10.6a10.6,10.6,0,0,1,.9-1.1c.4-.5,1.1-1.1,1.1-1.6s1.1-3.6,2.1-5.1,2.6-5.3,3.9-7.9l2.1-4.1.9-1.9C343.9,48.5,344.9,46.3,347.2,44.8Zm-82,138.7a37.6,37.6,0,0,0,3.1-2.5c.8-.8,1.4-1.8,2.2-2.6,2.1-2.4,4.3-4.7,6.5-7.1.2-.2.6-.4.7-.7.8-2.7,3.1-4.5,4.5-6.9a70.1,70.1,0,0,1,5.4-8c1.2-1.5,1.4-3.9,3.6-4.7v-.2a12.4,12.4,0,0,1,2.5-4.5c.2-.2.4-.4.4-.6s1.2-2.7,1.3-4.2.1-.4.1-.7a15.4,15.4,0,0,0-1.7-5.1c-.7-1-1.5-1.5-2.4-.8s-3.1,2.7-4.1,4.3a101,101,0,0,1-6.2,8.4,23.1,23.1,0,0,0-2.8,5.4,22,22,0,0,1-1.5,2.6,15.4,15.4,0,0,0-1.1,3l-.5.6a5,5,0,0,0-1.9,2.9,23.7,23.7,0,0,1-1.3,3.2c-.8,1.8-1.9,3.4-2.6,5.2a50.5,50.5,0,0,0-2.4,5.3c-.6,1.8-1.4,3.5-2,5.4A3.2,3.2,0,0,0,265.2,183.5Z"/><path d="M238.1,135.8q.3,2.7.6,5.7a9.9,9.9,0,0,1-1,4.5c-.6,1.4-1,2.8-1.5,4.2s-2.3,3.9-2.7,6.1-1.7,3.6-2.5,5.5-1,1.4-.8,2.4,0,.4-.1.5c-1.9,1.7-2,4.3-2.8,6.5l-3.3,9.1c-.1.3-.3.5-.3.7-.2,1.8-.3,3.7-.5,5.5a15.5,15.5,0,0,1-.5,2.3c-.2,1-.7,2.1-.4,2.8s.2,1.9.4,2.8-.1.6.1.7a5.1,5.1,0,0,1,1.5,2.9,6.8,6.8,0,0,0,1.5,2.6,1.7,1.7,0,0,0,2.2.7,18.8,18.8,0,0,0,4.4-2.4,17.8,17.8,0,0,1,2.7-2.1,12.4,12.4,0,0,0,2.8-2.8c1.5-1.7,2.9-3.6,5-4.7.4-.1.6-.5.8-.9a3.5,3.5,0,0,1,1.6-1.6,4.4,4.4,0,0,0,1.9-1.9c.4-.9.9-1.2,1.6-1s1.1.9.8,1.8H251l.6,2-.2.2c-.7.4-1.6.8-1.2,1.9s-.3.6-.4.8,2.2-.5,2.7.8l-2.1,2.2c-.3,1.9-.4,3.4-.7,4.8s-.3,1.3-1.2,1.6-1.4,1.2-1.9,2.1-.8,2.1-2.2,1.8-1.2,1.5-1.7,2.3a7.6,7.6,0,0,0-.9,1.8c-.2,2.1-1.9,2.5-3.3,3.3s-.7.2-.9.4c-1.1,1.9-3.2,2.2-5.1,2.6l-.7.2c-.5.4-.8.9-1.6.9s-4,.2-5.8-.6a64.4,64.4,0,0,1-7.3-4c-1.2-.8-1.9-2.3-2.9-3.5a4.8,4.8,0,0,0-.9-1.1,14.8,14.8,0,0,1-3.7-6c-.6-1.6-1.1-3.4-1.8-5V195c-.2-2.3-.7-4.7-.4-7s.3-7.1,1.9-10.4c-.1-1.4.6-2.6,1-3.9a8.4,8.4,0,0,1,1.6-3.3,4,4,0,0,0,.9-2.9,4.3,4.3,0,0,1,1.3-3.7c1-.9.7-2.4,1.2-3.5a43.7,43.7,0,0,1,3.3-6.9c1.8-2.8,2-2.7,2.7-6.1.2-.6.2-1.3.6-1.7s-.4-.9-.6-1.5l-2.7,2.7a7.9,7.9,0,0,1-2.7,2.1,1.8,1.8,0,0,0-1.1.8c-1.8,2.7-4.5,4.6-6.6,7a23.5,23.5,0,0,0-1.9,2.5c-.2.2-.2.6-.4.8l-4.6,5.1-4,5.1-2.9,3.8c-.7.9-1.5,1.7-2.1,2.6a8.2,8.2,0,0,1-3.3,2.9c.1.5.3,1.1.1,1.3a17,17,0,0,0-3.5,4.5c-.2.4-.9.4-1.2.7a10.8,10.8,0,0,0-2.1,2.2,4.8,4.8,0,0,0-.9,2.6,3.2,3.2,0,0,1-.9,1.6c-.6.8-1.5,1.2-1.8,2.3a3.3,3.3,0,0,1-1.5,1c-1.1.5-1.9.9-1.9,2.2s-.5,1-.8,1.5-2.4,3.6-3.5,5.5-.2,1.3-.4,1.9a12.9,12.9,0,0,1-.8,2.6c-.6.9-.3,1.9-.5,2.8s-.7,1-1,1.6-2,1.7-3,2.5a2.2,2.2,0,0,1-1.3.4,3.3,3.3,0,0,1-1.8-.8,3.3,3.3,0,0,0-2.6-1,2.3,2.3,0,0,1-2.3-1.5,4.7,4.7,0,0,0-2.4-2.8,2.4,2.4,0,0,1-1.1-2.2,70.9,70.9,0,0,1,.1-8,32.5,32.5,0,0,1,1.3-6.2,30.3,30.3,0,0,0,.6-3.2c.4-1.9.4-3.9,1.1-5.6s1.2-5,2.5-7.2.2-2,.9-2.9a6,6,0,0,0,1.4-2.6c0-2.6,1.7-4.7,2.2-7.1s1-2.4,1.4-3.7a14.7,14.7,0,0,1,1.5-3.4,22.6,22.6,0,0,1,1.7-3.5c.8-1,.7-2.4,1.7-3.4a10.6,10.6,0,0,0,1.6-3l2-5.4c.1-.2,0-.6.1-.7s1.4-2.1,1.8-3.3a8.8,8.8,0,0,1,1.9-3.4l1.7-2.1-1-1.2c.1-.3.1-.5.2-.5,2-1.6,3.9-3.4,6.7-3.7a2.9,2.9,0,0,0,1.3-.5,4.6,4.6,0,0,1,5.5,1,1.1,1.1,0,0,1,.3.8,2.9,2.9,0,0,0,.8,2.2c1.2,1.3.8,2.6.2,4s-1.5,2.2-1.5,3.6-.3.6-.6.8-1.9,2.5-2.3,4a21.5,21.5,0,0,1-2.2,4.6c-.3.4-.3,1-.6,1.5a6.8,6.8,0,0,1-1.2,1.2,3.2,3.2,0,0,1-.1,3.6,42.3,42.3,0,0,0-4.2,8.2c-1.2,2.7-2.5,5.3-3.8,8s-1.6,4.5-2.5,6.7c-.2.5-.3,1.1-.6,1.9a3.2,3.2,0,0,0,2.6-1.9,17.2,17.2,0,0,1,3.1-4,5.2,5.2,0,0,0,1-1.8c.4-.9,1.6-1.6,2.4-2.3l.4-.2c-.3-1.7,1.5-2.9,1.1-4.7a3.3,3.3,0,0,0,2.9-1.8c.3-.4.8-.7,1.1-1.1s2.2-1.6,3-2.9,1.6-2.3,2.4-3.5.3-.8.6-1c1.9-2.2,4-4.4,6-6.5a28.8,28.8,0,0,0,2.8-3.3,6.6,6.6,0,0,1,2.8-2.4c.6-.3,1.3-.3,1.5-1.3s.8-1,1.3-1.5a53.5,53.5,0,0,1,5.4-4.3c1.8-1.2,3.4-2.6,5.2-3.8a5.1,5.1,0,0,1,2.4-.7c1.3.1,2.4-.5,3.5-.7s.9-.4,1.4-.3a39.1,39.1,0,0,1,4.8.5,4.4,4.4,0,0,1,1.8,1.1c.5.4.9,1,1.8.9s1.3.7,1.8,1.2S237.5,134.9,238.1,135.8Z"/><path d="M632.8,204.3a14.5,14.5,0,0,1,2.9.4,2.3,2.3,0,0,0,2.8-.3c2,.2,3.6-.9,5.1-2.1s.9-.3,1-.6,2.7-1.5,2.8-3.3c1.8-.7,2.8-2.4,4.2-3.7a17.1,17.1,0,0,0,2.2-2.5,24,24,0,0,1,2.2-2.4c.7-.8,1-2,1.8-2.7s2.1-3.8,2.9-5.8a21.6,21.6,0,0,1,2.6-4.7,13.3,13.3,0,0,0,1.8-3c1-2,2.3-3.9,3.4-5.9a51.8,51.8,0,0,0,2.8-5.8,61.6,61.6,0,0,1,3.4-6.8,12,12,0,0,1,1.5-2.4,29.1,29.1,0,0,1,2.7-2.4c1,.2,1.3.7,1.3,1.4s0,3.7-1.6,5.1-.5,1.3-.6,2-1.7,3-1.8,4.8-.5,1.1-.5,1.8a5,5,0,0,1-.8,3.1,8.3,8.3,0,0,0-.8,2.2,22.3,22.3,0,0,1-3.8,6.7,8.4,8.4,0,0,0-1.6,3.3c-.2.8-.1,1.9-.7,2.4s-.6,1.7-.9,2.5a14.9,14.9,0,0,1-2,3.1l-5.4,8c-.2.3-.3.8-.6,1a7.9,7.9,0,0,0-2.3,3.5,9.8,9.8,0,0,1-1.9,2.8l-5.7,5.6a20.2,20.2,0,0,1-3.2,2.6,22.6,22.6,0,0,1-4.8,2.1l-2.5.8a9.4,9.4,0,0,1-5,0,2.5,2.5,0,0,0-1.2-.2c-1.9.2-3.5-.7-5.2-1.3a6.5,6.5,0,0,1-3-2.1,19,19,0,0,0-3-3.3,57.5,57.5,0,0,1-4.4-5.4,14.5,14.5,0,0,1-1.2-4.2v-2.3a4.3,4.3,0,0,0-.5-2.5,9.5,9.5,0,0,1-.5-3.3c.1-1,0-2,0-3.6a10.3,10.3,0,0,1-1.6,2.1,13.8,13.8,0,0,1-3.1,3.3,18.1,18.1,0,0,0-3.3,4.4,6.1,6.1,0,0,1-1.9,2.4,19,19,0,0,0-2.9,2.8c-.5.6-.9,1.5-1.6,1.9s-4.1,2.3-6.1,3.3a2.5,2.5,0,0,1-1.2.2h-3.7a4.2,4.2,0,0,1-2.8-.7,7.4,7.4,0,0,0-3.7-1.2,6.9,6.9,0,0,1-3.7-1.9l-.7-.7a20.9,20.9,0,0,1-.5-2.1c-.2-1-.8-2-.7-3.2a10.7,10.7,0,0,0-.6-3c-.4-1.7-.2-1.7,0-3.9s.7-4,1-6a64.3,64.3,0,0,1,2.2-8.9c.4-1.5,1-2.9,1.4-4.4s1.2-2.7,1.6-4.1a38.8,38.8,0,0,1,1.5-3.6,82.6,82.6,0,0,1,3.9-7.9,13.1,13.1,0,0,1,1.7-2.8,41.1,41.1,0,0,0,3.9-5.4,22.2,22.2,0,0,1,2.8-3.3l8.9-8.9,1.3-1c1.4-.9,3.1-1.4,4.4-2.6s2.9-1.5,4.2-2.7,1.9-.8,3-1.1,1.1,0,1.6-.5a2.6,2.6,0,0,1,1.3.3c2.6,1.2,5.6,1.7,8.2,3.1.5.3,1.2-.1,1.8.4a4.4,4.4,0,0,1,2.3,2.8,10.4,10.4,0,0,1,.4,1c1.2-.9,2.6-1.5,3.1-2.5s1-.8,1.4-.5,2.3.6,3.4.9a11.4,11.4,0,0,1,4.2,1.8c1.3,1,2,2.8,2.9,4.2s-.1.4-.2.6c-.7,2-1.3,4.1-2.1,6.1s-1.7,3.6-2.4,5.5-1.3,3.7-2.1,5.6c-1.6,3.9-2.7,7.9-4.1,11.8-.7,2.1-1.6,4.2-2.4,6.3s-2,6.5-3,9.7-.8,4.3-1.5,6.4a11.6,11.6,0,0,0-.5,4.5,20.9,20.9,0,0,0,.9,5.1c.3.9-.2,2,.6,2.8A5.3,5.3,0,0,1,632.8,204.3Zm-43.1-10.5.5.2a5.2,5.2,0,0,0,1.1-1c4.5-4.7,9.6-8.9,13.4-14.4,1.4-1.9,3.2-3.5,4.4-5.5a31.6,31.6,0,0,1,4.4-5.8,6.1,6.1,0,0,0,.7-1l4.3-6.5a27.1,27.1,0,0,1,2.4-3.5,14.5,14.5,0,0,0,2.2-3.8,86.4,86.4,0,0,1,6.4-10.1c1.2-1.9,1-2.2-1.1-3.2s-2.4,0-3.4-.9c-.7.7-1.8.5-2.6,1.1s-4.2,3.1-6.2,4.8-1.4.8-1.8,1.7-1.4,1.4-2.1,2.1a3.9,3.9,0,0,0-.8,1.4c-.3.7-1.6.1-1.3,1.2-1.6,2.3-3.2,4.7-5,6.9a56.6,56.6,0,0,0-4.7,7.3c-1.4,2.7-3,5.2-3.8,8.2-1.1.9-1.2,2.3-1.9,3.5a48.7,48.7,0,0,0-4.3,8.9c-.3.7,0,1.7-.3,2.4S589.9,191.8,589.7,193.8Z"/><path d="M351.2,174.1c.1,1.8.2,3.7-1.5,5.1-.1.1,0,.4-.1.4a4.4,4.4,0,0,0-.9,3.2c-1.1,1.6-2.1,3-3,4.5s-1.2,1.4-1.1,2.6-.8,1.4-1.3,2.1a5.4,5.4,0,0,0-1.1,2.3,13.5,13.5,0,0,1-1.5,2.6c-.8,1.6-1.6,3.2-2.5,4.7-1.7,3-2.8,6.3-4.9,9a8,8,0,0,0-1.1,2.5,4.2,4.2,0,0,1-3.6,2.7c-1,.1-2.1.8-3-.3h-.4c-1.8,0-3.6.1-5.4-1a3.7,3.7,0,0,0-.4-1.6,10.4,10.4,0,0,0-1.7-1.2,18.9,18.9,0,0,0,2-9,13,13,0,0,1,.9-3.9c.5-2.1,1.3-4.2,1.1-6.5s.6-2.9,1-4.3a47.3,47.3,0,0,1,2-6.7c1.2-2.6,1.6-5.3,2.5-8a18.6,18.6,0,0,1,1-2.5,10.8,10.8,0,0,0,1.5-5.2l.4-1.3c.5-1.4,1.2-2.8,1.7-4.3s1.3-2,1.6-3.4a20.9,20.9,0,0,0,.8-3.6c0-.9.6-1.4.9-2.1s.6-3.1,1.3-4.5,1.3-2.6,1.9-3.9,1.2-2.9,1.9-4.2a7.9,7.9,0,0,1,2.3-3.4,3.6,3.6,0,0,0,1.2-3.4,18.8,18.8,0,0,0,2-1.9c1.2-1.7,1.2-1.7,3.2-1.3a8.2,8.2,0,0,0,2.7.1,1.5,1.5,0,0,1,1.6.9c.4.8,1.6,1.2,1.5,2.3,1.5.7.6,2.4,1.4,3.5a.5.5,0,0,1-.1.3,39.3,39.3,0,0,0-2.3,8.3l-.3.8c-1.9,2.6-2.2,5.8-3.7,8.5v.3h1.3c.1-1.4,1.4-2.2,2.3-3.3a19.8,19.8,0,0,1,6.1-5.1,1.6,1.6,0,0,0,.7-.7,8.4,8.4,0,0,1,2.3-2.3c3.3-3.1,7.4-4.9,11.5-6.5a37.1,37.1,0,0,1,6.4-1.5c1-.1,1.9-.9,2.9,0h.4c1.3-1.1,2.4,0,3.5.3s2.1,1.5,3,2.5.5,2.3.5,3.6-3.5,1.9-5.6,2.1-2.9-.1-4.3.6l-2.6,1.4-5.9,2.6-2.1,1a1.6,1.6,0,0,0-.8.5c-.3,1.7-1.6,2.7-2.5,4s-2.3,2.2-2.9,3.5-3.3,4.1-4.5,6.4a58.9,58.9,0,0,0-3.2,5.4c-1,2-2.5,3.6-3.7,5.5A4.8,4.8,0,0,1,351.2,174.1Z"/><path d="M484.2,126.6l-2.3,1.3a8.8,8.8,0,0,1-1.7,1.2l-1.5.2c-1.3,0-2.4.7-3.7,1.1-1.3-1.4-2.8-2.7-4.1-4.2s-1.6-2.4-.7-4,1.6-3.2,3.5-3.9,1-1.2,1.6-1.4,1.9.3,2.4-.1,2,0,2.9.1,1,.4,1,.6,1.2,1.4,1.9,1.8,1.2.7,1.2,1.5.4,1.7.5,2.5-.1,1-.4,1.1S484.3,125.9,484.2,126.6Z"/><path d="M228.7,94.3l-1.2.7-1-.7c-.2-1.2-1-2.4-.2-3.7h-.2l-.6.4a20.1,20.1,0,0,1-4.2,2.7,4.6,4.6,0,0,1-2.1.5,12.2,12.2,0,0,1-5-.8h-.5a3.9,3.9,0,0,1-2.7-1.8,13.1,13.1,0,0,1-1.7-2.4,1.4,1.4,0,0,1-.2-.7,2,2,0,0,0-.6-1.2,3,3,0,0,1-.5-2.6,3.7,3.7,0,0,0,.1-1.1,14,14,0,0,1,.2-3.5c.4-1.9.6-3.9,1.2-5.8a35.4,35.4,0,0,1,1.6-3.4l.4-1a23.4,23.4,0,0,1,.9-2.4l3.2-6.8a13.8,13.8,0,0,1,1.4-2.7,13.6,13.6,0,0,0,1.1-2.5c.5-1.1.9-2.2,1.3-3.2a.8.8,0,0,1,.2-.4c1.2-1.5,1.5-3.5,2.5-5.3a4.7,4.7,0,0,0-1.7.2h-.3c-1.5-.1-2.8.6-4.3.8h-.4a3.9,3.9,0,0,0-2.4,0l-1.3.4-1.8.4-1.5.2a3.2,3.2,0,0,0-1.4.3,2.6,2.6,0,0,1-3.4-1.4c-.1-.5-.5-.8-.4-1.4a3,3,0,0,1,.4-1c.3-.8,1.1-1.3,1.3-2.2s.5-.4.9-.4h.5a8.9,8.9,0,0,1,1.6-.9l2.7-.5h.5a1.1,1.1,0,0,0,1.3-.2H214c.4-.1.8-.3,1.2,0h.6l1.8-.4h.5a2.7,2.7,0,0,0,2.6,0l.8-.3a1.7,1.7,0,0,1,1.4,0l.7.2a1.9,1.9,0,0,0,1.9-.9c.9-1.5,1.8-3,2.8-4.5l2.7-4.6a6.3,6.3,0,0,1,1-2,5.3,5.3,0,0,1,1.4-1.2,2,2,0,0,1,2.1,0,5.8,5.8,0,0,0,1.4.5,2.8,2.8,0,0,1,1.1.8,4.7,4.7,0,0,1,.7,1.2,1.7,1.7,0,0,1-.1,1.7l-2,3.1a9,9,0,0,0-.8,2.1,3.2,3.2,0,0,1-.8,1.4,1.3,1.3,0,0,0-.6,1.3c0,.3-.4.7-.6,1.1h.5a3.7,3.7,0,0,1,1.8,0,10.2,10.2,0,0,0,3-.3h3.2c.6.4,1.2.2,1.9.3.5-1.5,1.1-2.9,1.7-4.3a11.1,11.1,0,0,1,.7-1.6l.8-1.5a1.3,1.3,0,0,1,1.8-.7c.4.1.7.5,1.2.3s.4.2.6.3a3.7,3.7,0,0,1,1,2.3c0,.4.1.9.1,1.4a1.9,1.9,0,0,1-.3,1l-.6,1.7c.4-.3.7-.7,1.2-.4s1.1,0,1.1.8-2-.5-2.8.6a6.1,6.1,0,0,1,2.4.6c.3.1.8-.1,1.2-.1l.2,1.2c.6-.3,1.5.2,2-.8l.2.6c0-.7.5-.4,1-.5l-.7-.5c.8-.5,1.5-.2,2.3.2h-1l.8,1.1c.8-.1,1.5.2,2.4.1a2.2,2.2,0,0,0,1.6-.9l.3.6.2-1a1.4,1.4,0,0,1,1.2,1l.6,1c.9-.2,1.8.4,2.7-.5s0,.6.1.6l1.8.8c.3-.4.5-1,1.2-.8l-.5.7,4.1.7-.4.3h-.6c-.8-.1-1.7-.5-2.6,0a.8.8,0,0,1-.8.1c-.9-.6-2-.2-3-.5a4.5,4.5,0,0,0-1.6.3,6,6,0,0,1-2.3.1h-7.1a3.4,3.4,0,0,0-2-.1h-3.9l-1.8.3-.9,2c-1.3,2.7-2.3,5.6-3.4,8.4s-3.1,8.3-4.5,12.5a15.7,15.7,0,0,1-1.2,2.6,16.6,16.6,0,0,0-1.9,4.3c0,.3-.2.5-.3.8a33.7,33.7,0,0,0-.9,3.4l.2-.2a24.6,24.6,0,0,1,3.1-4.8c1.1-1.6,2.3-3.1,3.5-4.7l1-1.1,4.2-4,2.7-2.3a5,5,0,0,1,4.3-.7h.3a1.7,1.7,0,0,1,1.5.8,3.4,3.4,0,0,1,1,2.3,12.8,12.8,0,0,1-.6,5.1c-.4,1.1-.7,2.2-1.1,3.3a7.6,7.6,0,0,1-.6,1.6,19.9,19.9,0,0,0-1.5,4.9,1.1,1.1,0,0,1-.1.5,15.2,15.2,0,0,0-1.2,4.3,23.5,23.5,0,0,0-.1,2.7l.7-.3,1.8-1.8,2.6-2.8,1.3-1.8.7-1.1a12.7,12.7,0,0,0,1.8-2.7c.5-.9,1.1-1.6,1.5-2.5s.4-.5.6-.7a14.6,14.6,0,0,0,3.3-3.7l.4-.6,1.4-1.6a35.9,35.9,0,0,1,3.2-3.5,9,9,0,0,1,1.6-1.8l.7-.4,4.7-1.2a2.1,2.1,0,0,1,1.5.3,3.1,3.1,0,0,0,1.3.6,3.7,3.7,0,0,1,2.7,2.6,21.5,21.5,0,0,1,1,2.7,2.8,2.8,0,0,1,0,2h0a5.7,5.7,0,0,1-1.6,3.3,12.5,12.5,0,0,0-.8,1.2l-.3.6-2.7,2.2-.8.7a7.5,7.5,0,0,1-2.4,1.5,2,2,0,0,0-.8.4,7.9,7.9,0,0,1-4.7,1.4h-2.3c-1,0-1.3.2-1.6,1.1a11.1,11.1,0,0,0-.7,1.6,9.7,9.7,0,0,0-1,4.7,8.6,8.6,0,0,0,.7,2.1,1.8,1.8,0,0,0,1.8.7,15.8,15.8,0,0,0,5.7-2.4l.8-.2a2.6,2.6,0,0,0,1.6-.7L278,85l.6-.2a5,5,0,0,0,2.2-1.3l7.8-7.7,2.8-2.6,1.3-.7a.7.7,0,0,1,.8.8,4.7,4.7,0,0,1-1.5,3.4l-6.5,6.9-2,2.2c-1.2,1.1-2.4,2.2-3.5,3.4a23.1,23.1,0,0,1-5.3,4,10.4,10.4,0,0,1-5.5,1.3h-2.8a5.8,5.8,0,0,1-3.8-1.3l-1.3-.9a5.6,5.6,0,0,1-1.7-3.9,4.7,4.7,0,0,1,0-1.2c-.9,1.4-2.2,2.1-2.8,3.4l-.8.9a24.3,24.3,0,0,1-2.5,2,2.8,2.8,0,0,1-2.9.2l-.7-.3c-1.5-.4-2.2-1.6-2.9-2.8a9.9,9.9,0,0,1-1.1-4.4,19,19,0,0,1,1.2-7.9c.5-1.2.7-2.5,1.1-3.8s1.1-3.3,1.7-4.9a1.6,1.6,0,0,0,.1-1l-2.4,2.5-.6.7a7.9,7.9,0,0,0-2.1,2.7,1.8,1.8,0,0,1-.7.8,28,28,0,0,0-3.7,5.3l-1.6,2.3c-.3.5-.5,1-.8,1.4a39.4,39.4,0,0,0-3.2,5.1,16.7,16.7,0,0,0-1.2,2.3,4.5,4.5,0,0,1-3.2,2.5l-1.1,1.6Zm13.5-49.7h-1a10.9,10.9,0,0,1-1.8.1,5.8,5.8,0,0,0-2.3.3,25.8,25.8,0,0,1-4.8.3,1.8,1.8,0,0,0-2,1l-1,1.8c-.4.8-.6,1.6-1,2.3-1.2,2.4-2.3,4.8-3.5,7.1a3.5,3.5,0,0,0-.5.8l-1.1,2.2a6.7,6.7,0,0,1-.9,2.1,8.6,8.6,0,0,0-1.1,2.4c-.6,1.7-1.3,3.4-1.8,5s-1.5,4.5-2.2,6.7c-.1.4-.3.8-.4,1.1-.6,2.3-1.1,4.7-1.6,7v.7a7.7,7.7,0,0,0,.2,1.5,16,16,0,0,0,.5,2.1.8.8,0,0,0,.8.6l1.6-.4a5.6,5.6,0,0,0,2-1.1,41.9,41.9,0,0,0,4.5-3.9l2.6-3.3a24.1,24.1,0,0,0,3.5-7.2c.7-2.1,1.4-4.2,2.2-6.2l2.4-6.1c0-.1.1-.1.1-.2a20.1,20.1,0,0,1,1.6-4.9c.7-1.6,1.5-3.3,2.1-4.9s.6-1.8,1-2.7S241.5,46.1,242.2,44.6Zm28.2,30.3,1-.6,1.2-.6,1.2-.5.9-.6a14.4,14.4,0,0,0,4.5-4,3.5,3.5,0,0,0,.3-3.9c-.2-.4-.4-.5-.9-.2l-1.4,1-.3.5a57.2,57.2,0,0,0-4,4.6c-.8,1.1-1.4,2.3-2.2,3.3a.9.9,0,0,0-.3.5C270.3,74.5,270.4,74.7,270.4,74.9Zm-32.2-7.3a9.1,9.1,0,0,1,.7-1.4,15,15,0,0,0,1.9-4.7,13,13,0,0,1,1.1-1.9c.1-.2.3-.4.3-.6a20,20,0,0,0,.5-2.6A77,77,0,0,0,238.2,67.6Z"/></svg>